<?xml version="1.0" encoding="iso-8859-1"?>
<!-- Generator: Adobe Illustrator 19.0.0, SVG Export Plug-In . SVG Version: 6.00 Build 0)  -->
<svg version="1.1" id="Layer_1" xmlns="http://www.w3.org/2000/svg" xmlns:xlink="http://www.w3.org/1999/xlink" x="0px" y="0px"
	 viewBox="0 0 512 512" style="enable-background:new 0 0 512 512;" xml:space="preserve">
<g transform="translate(1 1)">
	<g>
		<path style="fill:#FCC309;" d="M229.4,476.867L41.667,417.133V92.867H11.8c-2.56,0-4.267,1.707-4.267,4.267v384
			c0,2.56,1.707,4.267,4.267,4.267h217.6V476.867z"/>
		<path style="fill:#FCC309;" d="M498.2,92.867h-29.867v324.267l-170.667,54.613V485.4H498.2c2.56,0,4.267-1.707,4.267-4.267v-384
			C502.467,94.573,500.76,92.867,498.2,92.867"/>
	</g>
	<path style="fill:#FD9808;" d="M476.867,485.4h25.6V92.867h-25.6V485.4z"/>
	<path style="fill:#FFFFFF;" d="M7.533,485.4h25.6V92.867h-25.6V485.4z"/>
	<g>
		<path style="fill:#FFDD09;" d="M255,485.4V92.867"/>
		<path style="fill:#FFDD09;" d="M253.293,484.547L41.667,417.133V24.6L255,92.867v390.827
			C255,484.547,254.147,485.4,253.293,484.547"/>
		<path style="fill:#FFDD09;" d="M256.707,484.547l211.627-67.413V24.6L255,92.867v390.827
			C255,484.547,255.853,485.4,256.707,484.547"/>
	</g>
	<path d="M255,493.933c-5.12,0-8.533-3.413-8.533-8.533V92.867c0-5.12,3.413-8.533,8.533-8.533s8.533,3.413,8.533,8.533V485.4
		C263.533,490.52,260.12,493.933,255,493.933z"/>
	<path d="M254.147,493.933c-0.853,0-1.707,0-2.56-0.853l-212.48-67.413c-3.413-1.707-5.973-5.12-5.973-8.533V24.6
		c0-2.56,1.707-5.12,3.413-6.827c2.56-1.707,5.12-1.707,7.68-1.707L257.56,84.333c3.413,1.707,5.973,5.12,5.973,8.533v390.827
		c0,3.413-1.707,5.973-4.267,7.68C257.56,493.08,255.853,493.933,254.147,493.933z M255.853,476.867L255.853,476.867
		L255.853,476.867L255.853,476.867z M50.2,411.16l196.267,63.147V98.84L50.2,36.547V411.16z"/>
	<path d="M144.067,163.693c-0.853,0-1.707,0-3.413-0.853L80.92,138.947c-4.267-1.707-6.827-6.827-5.12-11.093
		c1.707-4.267,6.827-6.827,11.093-5.12l59.733,23.893c4.267,1.707,6.827,6.827,5.12,11.093
		C150.893,161.133,147.48,163.693,144.067,163.693z"/>
	<path d="M212.333,233.667c-0.853,0-1.707,0-2.56-0.853l-128-46.933c-4.267-1.707-6.827-6.827-5.12-11.093s6.827-6.827,11.093-5.12
		l128,46.933c4.267,1.707,6.827,6.827,5.12,11.093C219.16,231.96,215.747,233.667,212.333,233.667z"/>
	<path d="M212.333,284.867c-0.853,0-1.707,0-2.56-0.853l-128-46.933c-4.267-1.707-6.827-6.827-5.12-11.093s6.827-6.827,11.093-5.12
		l128,46.933c4.267,1.707,6.827,6.827,5.12,11.093C219.16,283.16,215.747,284.867,212.333,284.867z"/>
	<path d="M212.333,336.067c-0.853,0-1.707,0-2.56-0.853l-128-46.933c-4.267-1.707-6.827-6.827-5.12-11.093s6.827-6.827,11.093-5.12
		l128,46.933c4.267,1.707,6.827,6.827,5.12,11.093C219.16,334.36,215.747,336.067,212.333,336.067z"/>
	<path d="M212.333,387.267c-0.853,0-1.707,0-2.56-0.853l-128-46.933c-4.267-1.707-6.827-6.827-5.12-11.093
		c1.707-4.267,6.827-6.827,11.093-5.12l128,46.933c4.267,1.707,6.827,6.827,5.12,11.093
		C219.16,385.56,215.747,387.267,212.333,387.267z"/>
	<path d="M255.853,493.933c-1.707,0-4.267-0.853-5.973-1.707c-2.56-1.707-4.267-5.12-4.267-7.68V92.867
		c0-3.413,2.56-6.827,5.973-8.533L464.92,16.067c3.413,0,5.973,0,8.533,1.707c1.707,1.707,3.413,4.267,3.413,6.827v392.533
		c0,3.413-2.56,6.827-5.973,8.533L259.267,493.08C258.413,493.08,257.56,493.933,255.853,493.933z M254.147,476.867L254.147,476.867
		L254.147,476.867L254.147,476.867z M263.533,98.84v374.613L459.8,410.307V36.547L263.533,98.84z"/>
	<path d="M498.2,493.933H11.8c-6.827,0-12.8-5.973-12.8-12.8v-384c0-6.827,5.973-12.8,12.8-12.8h29.867
		c5.12,0,8.533,3.413,8.533,8.533V411.16l202.24,64.853c1.707-0.853,3.413-0.853,5.12,0L459.8,411.16V92.867
		c0-5.12,3.413-8.533,8.533-8.533H498.2c6.827,0,12.8,5.973,12.8,12.8v384.853C511,487.96,505.027,493.933,498.2,493.933z
		 M309.613,476.867h184.32V101.4h-17.067v315.733c0,3.413-2.56,6.827-5.973,8.533L309.613,476.867z M16.067,476.867h184.32
		l-161.28-51.2c-3.413-1.707-5.973-5.12-5.973-8.533V101.4H16.067V476.867z M468.333,417.133L468.333,417.133L468.333,417.133z"/>
	<path d="M297.667,182.467c-3.413,0-6.827-2.56-7.68-5.973c-1.707-4.267,0.853-9.387,5.12-11.093l128-46.933
		c4.267-1.707,9.387,0.853,11.093,5.12c1.707,4.267-0.853,9.387-5.12,11.093l-128,46.933
		C300.227,182.467,299.373,182.467,297.667,182.467z"/>
	<path d="M297.667,233.667c-3.413,0-6.827-2.56-7.68-5.973c-1.707-4.267,0.853-9.387,5.12-11.093l128-46.933
		c4.267-1.707,9.387,0.853,11.093,5.12c1.707,4.267-0.853,9.387-5.12,11.093l-128,46.933
		C300.227,233.667,299.373,233.667,297.667,233.667z"/>
	<path d="M297.667,284.867c-3.413,0-6.827-1.707-7.68-5.973c-1.707-4.267,0.853-9.387,5.12-11.093l128-46.933
		c4.267-1.707,9.387,0.853,11.093,5.12c1.707,4.267-0.853,9.387-5.12,11.093l-128,46.933
		C300.227,284.867,299.373,284.867,297.667,284.867z"/>
	<path d="M297.667,336.067c-3.413,0-6.827-1.707-7.68-5.973c-1.707-4.267,0.853-9.387,5.12-11.093l128-46.933
		c4.267-1.707,9.387,0.853,11.093,5.12c1.707,4.267-0.853,9.387-5.12,11.093l-128,46.933
		C300.227,336.067,299.373,336.067,297.667,336.067z"/>
	<path d="M297.667,387.267c-3.413,0-6.827-1.707-7.68-5.973c-1.707-4.267,0.853-9.387,5.12-11.093l128-46.933
		c4.267-1.707,9.387,0.853,11.093,5.12c1.707,4.267-0.853,9.387-5.12,11.093l-128,46.933
		C300.227,387.267,299.373,387.267,297.667,387.267z"/>
</g>
<g>
</g>
<g>
</g>
<g>
</g>
<g>
</g>
<g>
</g>
<g>
</g>
<g>
</g>
<g>
</g>
<g>
</g>
<g>
</g>
<g>
</g>
<g>
</g>
<g>
</g>
<g>
</g>
<g>
</g>
</svg>
